<svg width="346" height="335" viewBox="0 0 346 335" fill="none" xmlns="http://www.w3.org/2000/svg">
<g clip-path="url(#clip0_1173_1408)">
<path d="M219.1 133.6C194.4 133.6 169.7 133.6 145 133.6C133.4 133.6 127.8 128 127.8 116.4C127.8 83.1 127.8 49.8 127.8 16.5C127.8 5.7 133.6 0 144.5 0C194.4 0 244.2 0 294.1 0C304.9 0 310.7 5.7 310.7 16.6C310.7 50 310.7 83.4 310.7 116.8C310.7 127.9 305 133.5 293.9 133.5C269 133.6 244.1 133.6 219.1 133.6ZM288.7 12.1C242.1 12.1 196.6 12.1 151 12.1C150.9 13.3 151.9 13.7 152.5 14.2C174.1 33 195.7 51.8 217.3 70.7C219.3 72.4 220.3 71.7 221.9 70.3C236.4 57.6 251 44.9 265.6 32.3C273 25.8 280.5 19.3 288.7 12.1ZM150.2 121.3C196.7 121.3 242.2 121.3 288 121.3C287.8 120.8 287.7 120.5 287.5 120.4C270.6 105.7 253.7 91 236.8 76.2C235.2 74.8 234.3 75.3 233 76.4C229.9 79.2 226.9 81.9 223.7 84.5C220.6 87 218 87 215 84.5C212.1 82.1 209.2 79.8 206.6 77.1C204.5 74.9 203.1 75.1 200.9 77.1C188.4 88.2 175.8 99.1 163.2 110C159 113.6 154.9 117.2 150.2 121.3ZM140.2 19.5C140.2 51.2 140.2 82.4 140.2 114C158 98.5 175.4 83.3 192.8 68.3C194.6 66.8 193.8 66.1 192.6 65C185 58.4 177.4 51.8 169.7 45.1C160 36.7 150.3 28.2 140.2 19.5ZM298.4 114C298.4 82.2 298.4 51.2 298.4 19.9C297.6 20.4 297.2 20.7 296.8 21C279.9 35.7 263 50.4 246.1 65C244.2 66.6 244.9 67.4 246.3 68.6C257 77.9 267.7 87.2 278.4 96.6C285 102.3 291.5 108 298.4 114Z" fill="#FF9F00"/>
<path d="M189.9 268.2C175.4 268.2 161 268.3 146.5 268.2C132.7 268.1 121.3 273 112 283.1C110.1 285.1 108.1 287 106.4 289.1C105.1 290.7 104.2 290.4 102.9 289.1C83.6 270.3 64.3 251.6 44.8 232.9C43 231.2 43.7 230 44.6 228.5C57.5 207.1 76.4 194.3 100.7 189.3C114.1 186.5 127.2 187.5 140 192.6C141.9 193.4 143.9 193.3 145.9 193.3C171.8 193.3 197.8 193.3 223.7 193.3C226.3 193.3 228.9 193.3 231.5 194.1C238.7 196.4 243.2 202.9 242.7 210.7C242.3 218 236.9 224 229.5 225.3C227.7 225.6 225.8 225.7 223.9 225.7C203.6 225.7 183.3 225.7 162.9 225.7C161.7 225.7 160.4 225.6 159.2 225.8C156.4 226.2 154.7 228 154.3 230.7C153.8 233.6 155.1 235.9 157.8 237C159 237.5 160.5 237.6 161.8 237.6C183.1 237.6 204.4 237.7 225.8 237.6C243.1 237.5 255.4 224.4 254.6 207.3C254.5 204.4 253.9 201.6 252.6 199C251.4 196.7 251.6 195.6 254.1 194.2C274.4 182.6 294.6 170.9 314.9 159.2C316.9 158 318.9 156.8 321 155.6C327.8 151.9 338.3 154 343.2 160C346.3 163.8 346.5 167.9 344.7 172.3C343.1 176.3 340.6 179.8 337.6 182.7C311.8 208.2 286 233.7 260.1 259.2C253.3 265.9 244.9 268.3 235.5 268.2C220.3 268.2 205.1 268.2 189.9 268.2Z" fill="#FFCEBF"/>
<path d="M111.9 294C112 295.7 111.3 296.1 110.8 296.6C98.8 309.1 86.7 321.5 74.7 334C73.2 335.5 72.5 335.2 71.2 333.9C47.9 311.3 24.6 288.8 1.29998 266.3C-0.400021 264.7 -0.300021 263.8 1.29998 262.2C13.2 250.1 24.9 237.9 36.6 225.6C38.4 223.7 39.3 224.1 41 225.7C64 248 87 270.3 110.1 292.6C110.7 293.3 111.6 293.8 111.9 294ZM78.9 312.7C79 309.5 76.3 306.8 73.1 306.7C69.8 306.6 67.1 309 67 312.4C66.9 315.9 69.5 318.7 72.9 318.7C76.1 318.6 78.8 315.8 78.9 312.7Z" fill="#00C0F1"/>
<path d="M288.7 12.1C280.5 19.2 273 25.8 265.5 32.3C250.9 45 236.3 57.6 221.8 70.3C220.2 71.7 219.2 72.4 217.2 70.7C195.7 51.8 174 33 152.4 14.2C151.8 13.7 150.8 13.4 150.9 12.1C196.5 12.1 242 12.1 288.7 12.1Z" fill="#FFF1DA"/>
<path d="M150.2 121.3C154.9 117.2 159.1 113.6 163.2 110C175.8 98.9999 188.4 88.0999 200.9 77.0999C203.1 75.0999 204.5 74.9999 206.6 77.0999C209.2 79.7999 212.1 82.0999 215 84.4999C218.1 86.9999 220.6 86.9999 223.7 84.4999C226.9 81.8999 229.9 79.0999 233 76.3999C234.3 75.2999 235.2 74.7999 236.8 76.1999C253.7 90.9999 270.6 105.7 287.5 120.4C287.7 120.5 287.7 120.8 288 121.3C242.2 121.3 196.7 121.3 150.2 121.3Z" fill="#FFF1DA"/>
<path d="M140.2 19.5C150.2 28.2 160 36.7 169.7 45.1C177.3 51.7 184.9 58.4 192.6 65C193.9 66.1 194.6 66.8 192.8 68.3C175.4 83.4 158 98.5 140.2 114C140.2 82.4 140.2 51.3 140.2 19.5Z" fill="#FFF1DA"/>
<path d="M298.4 114C291.5 108 284.9 102.3 278.4 96.7C267.7 87.4 257 78 246.3 68.7C244.9 67.5 244.2 66.7 246.1 65.1C263.1 50.5 279.9 35.7 296.9 21C297.3 20.7 297.7 20.4 298.5 19.9C298.4 51.2 298.4 82.2 298.4 114Z" fill="#FFF1DA"/>
<path d="M78.9 312.7C78.8 315.9 76.1 318.6 72.9 318.6C69.5 318.6 66.9 315.8 67 312.3C67.1 309 69.8 306.6 73.1 306.6C76.3 306.7 79 309.5 78.9 312.7Z" fill="#007E9B"/>
</g>
<defs>
<clipPath id="clip0_1173_1408">
<rect width="345.7" height="335" fill="white"/>
</clipPath>
</defs>
</svg>
