<svg width="409" height="409" viewBox="0 0 409 409" fill="none" xmlns="http://www.w3.org/2000/svg">
<g clip-path="url(#clip0_1172_1395)">
<path d="M194.7 0H195.6C195.8 1.7 197.1 1.4 198.3 1.6C212.2 3.6 225.5 7.8 237.8 14.4C252.4 22.2 265.4 32.1 276.1 44.8C285.5 56 293.1 68.1 298.5 81.6C307.3 103.4 309.3 126.1 306.4 149.1C304.1 167.5 298.3 185 290.6 201.8C282.7 218.8 273.1 234.8 262.2 250.1C251.8 264.7 240.3 278.3 228.3 291.5C220.7 299.8 212.6 307.8 204.4 315.5C200.3 319.4 196.4 323.7 191.3 326.5C183.8 321 177.3 314.4 170.6 308C153.2 291.2 137.6 272.9 122.9 253.7C121.6 251.7 120.3 249.7 119 247.7C102.5 224.1 88.8 199 81 171.1C74.6 148.1 73.1 124.9 78.3 101.4C82.6 82.1 90.8 64.5 103.2 49C124.3 22.8 151.4 6.7 184.8 1.4C186.1 1.2 187.6 1.2 188.9 0.8C190.8 0.4 192.7 0 194.7 0ZM204 80.5C176.9 80.5 154.9 102.6 154.9 129.8C154.9 156.9 177 179.2 203.9 179.3C230.8 179.4 253 157 253 129.9C253 102.6 231.1 80.5 204 80.5Z" fill="#FE4A4A"/>
<path d="M216.3 0C222.2 2 228.4 2 234.4 3.6C284.8 17.6 316.5 50.2 329.5 100.6C335.9 125.3 333.4 150.1 326.2 174.4C318 201.9 304.2 226.5 287.7 249.8C286.8 251.1 286 252.4 285.1 253.8C272.5 270.6 258.7 286.4 244.3 301.6C242.7 303.1 241 304.6 239.4 306.2C229.6 315.9 219.4 325.1 208.7 333.8C206.5 335.6 204.2 336.9 201.5 335.2C197.7 332.8 194.1 330.1 191.3 326.5C196.3 323.6 200.2 319.4 204.4 315.5C212.6 307.8 220.7 299.9 228.3 291.5C240.3 278.3 251.8 264.7 262.2 250.1C273.1 234.8 282.7 218.8 290.6 201.8C298.4 185 304.1 167.5 306.4 149.1C309.3 126 307.3 103.3 298.5 81.6C293 68.2 285.4 56 276 44.9C265.3 32.1 252.2 22.3 237.7 14.5C225.4 7.9 212.1 3.7 198.2 1.7C197 1.5 195.7 1.8 195.5 0.1C202.5 0 209.4 0 216.3 0Z" fill="#E6353F"/>
<path d="M0 401.4C6.6 385.3 13.3 369.3 19.9 353.2C21 350.6 22 348.1 23.1 345.5C39.3 345.5 55.5 345.5 71.7 345.5C76.3 345.5 76.2 345.5 74.5 349.6C66.5 369.2 58.4 388.8 50.4 408.4C36.1 408.4 21.7 408.5 7.4 408.5C3.9 408.5 1.4 407 0 403.7C0 403 0 402.3 0 401.4Z" fill="#A8EDFB"/>
<path d="M50.5 408.5C58.5 388.9 66.5 369.3 74.6 349.7C76.3 345.5 76.3 345.6 71.8 345.6C55.6 345.6 39.4 345.6 23.2 345.6C25 338.7 28.4 332.3 31 325.8C34.3 317.7 37.7 309.7 41.1 301.7C57.8 301.7 74.5 301.7 91.3 301.8C93.7 301.8 94.8 301 95.7 298.8C101.8 283.8 108 268.9 114.2 254C117.8 253.5 118.7 253.4 122.3 252.9C137.2 272.3 153 291 170.6 308.1C177.3 314.5 183.8 321.1 191.3 326.6C194.1 330.2 197.7 332.9 201.5 335.3C204.2 337 206.5 335.7 208.7 333.9C219.4 325.2 229.6 316 239.4 306.3C241 304.7 242.7 303.2 244.3 301.7C276 301.7 307.6 301.7 339.3 301.7V302C341.6 307.6 343.9 313.2 346.2 318.8C349.8 327.7 353.4 336.6 356.9 345.6C355.3 345.7 353.7 345.7 352.1 345.7C323.2 345.7 294.4 345.7 265.5 345.7C264.2 345.7 262.7 345.3 261.1 346.3C277.4 360.6 293.6 374.6 309.6 388.8C317.1 395.4 324.9 401.6 331.9 408.7C308.3 408.6 284.7 408.6 261 408.5C260.4 407.9 259.9 407.3 259.3 406.8C237.1 388 214.9 369.2 192.8 350.4C176.3 336.4 159.8 322.4 143.4 308.3C141.2 306.4 140.5 306.8 139.4 309.4C126 342.5 112.5 375.5 99 408.5C82.8 408.4 66.6 408.5 50.5 408.5Z" fill="#FEDA56"/>
<path d="M98.9 408.4C112.4 375.4 125.9 342.4 139.3 309.3C140.4 306.7 141.1 306.3 143.3 308.2C159.7 322.3 176.2 336.3 192.7 350.3C214.9 369.1 237.1 387.9 259.2 406.7C259.8 407.2 260.3 407.8 260.9 408.4C259.7 408.5 258.5 408.6 257.3 408.6C205.5 408.6 153.8 408.6 102 408.6C101.1 408.6 100 408.5 98.9 408.4Z" fill="#4CE066"/>
<path d="M331.8 408.5C324.8 401.4 317 395.2 309.5 388.6C293.5 374.5 277.3 360.4 261 346.1C262.6 345.2 264.1 345.5 265.4 345.5C294.3 345.5 323.1 345.5 352 345.5C353.7 345.5 355.4 345.4 357.1 345.3C357.3 345.4 357.4 345.5 357.6 345.6C363.3 359.3 369 372.9 374.5 386.7C377.4 393.9 381 400.9 383.1 408.4C366.1 408.5 349 408.5 331.8 408.5Z" fill="#A7EDFB"/>
<path d="M339.2 301.5C307.5 301.5 275.9 301.5 244.2 301.5C258.7 286.3 272.4 270.5 285 253.7C296.7 253.8 308.3 253.8 320 253.9C321.2 259.9 324.1 265.3 326.4 270.9C330.6 281.1 335 291.3 339.2 301.5Z" fill="#4CE066"/>
<path d="M383.2 408.5C381.1 401 377.5 394 374.6 386.8C369.1 373.1 363.3 359.4 357.7 345.7C366.9 345.6 376 345.5 385.2 345.4C389.2 352.3 391.5 360 394.7 367.2C399.1 377.4 403.2 387.8 407.5 398.1C410.3 405 407.9 408.6 400.5 408.6C394.6 408.6 388.9 408.5 383.2 408.5Z" fill="#7EE4F1"/>
<path d="M339.2 301.5C334.9 291.3 330.6 281.1 326.4 270.8C324.1 265.2 321.2 259.9 320 253.8C327.7 253.8 335.4 253.7 343.1 253.7C345.9 253.7 348 255 349 257.6C355 272.3 361 287 367 301.7C357.7 301.7 348.4 301.7 339.1 301.8L339.2 301.5Z" fill="#44C869"/>
<path d="M339.2 301.8C348.5 301.8 357.8 301.8 367.1 301.7C373.1 316.3 379.1 330.8 385.1 345.4C375.9 345.5 366.8 345.6 357.6 345.7C357.3 345.5 357 345.3 356.7 345.1C353.2 336.3 349.6 327.4 346.1 318.6C343.8 313 341.5 307.4 339.2 301.8Z" fill="#FEBB25"/>
<path d="M114.1 254C107.9 268.9 101.7 283.9 95.6 298.8C94.7 301 93.6 301.8 91.2 301.8C74.5 301.7 57.8 301.7 41 301.7C46.9 287.3 52.8 272.8 58.7 258.4C60 255.3 62.3 253.9 65.5 254C81.8 253.9 97.9 253.9 114.1 254Z" fill="#4DE066"/>
</g>
<defs>
<clipPath id="clip0_1172_1395">
<rect width="408.5" height="408.6" fill="white"/>
</clipPath>
</defs>
</svg>
