<svg  width="2344.91" height="617" viewBox="0 0 2344.91 617"><defs><linearGradient id="a" x1="550.48" y1="-2766.19" x2="13.7" y2="-2456.28" gradientTransform="matrix(1, 0, 0, -1, 0, -2253.71)" gradientUnits="userSpaceOnUse"><stop offset="0" stop-color="#1781f1"/><stop offset="1" stop-color="#10aff0"/></linearGradient></defs><path d="M312.3,0h-3.8C138.6,0,0,139,0,308.5V617H312.3c169.9,0,308.5-139,308.5-308.5h0C620.8,139,481.8,0,312.3,0Z"/><path d="M215.2,460.7c13.6,0,24.2-6.4,31.4-18.6,6.8-11.4,13.1-22.9,19.9-34.3,13.6-23.3,26.7-46.6,40.3-69.9.8-1.3,1.3-1.7,2.1,0,6.4,11,12.7,22,19.1,33.1,14,24.2,27.5,47.9,41.5,72,6.8,11.9,17.8,17,30.1,17.8,14,0,26.3-7.2,32.6-18.6,13.6-23.3,27.1-46.6,40.3-69.9,22.9-39.8,46.2-80.1,69.1-119.9,1.3-1.7.8-2.5-2.1-3.8a139.36,139.36,0,0,1-24.6-14,36.49,36.49,0,0,0-51,8,33.88,33.88,0,0,0-2,3q-30.45,52.2-60.2,104.3c-1.3,2.5-1.3,2.5-3,0-8.9-15.3-17.8-30.5-26.3-45.8-11.4-19.9-22.9-39.8-34.3-59.3-6.8-11.4-17.8-17-30.9-17-13.6,0-24.2,6.8-31.4,18.6-4.7,7.6-8.9,15.7-13.6,23.3-15.3,26.7-30.5,53.4-46.6,79.7-.4.8-.4,1.7-1.3,1.7s-1.3-.8-1.3-1.7c-19.5-33.5-39-67.4-58.5-100.9-3-5.1-5.9-9.7-10.2-13.1-13.1-9.7-27.1-11-41.5-3-9.7,5.5-19.5,11-28.8,16.5-1.7.8-1.7,1.7-.8,3.4,9.7,17,19.9,34.3,29.7,51.3L183,442.2C190.2,454.3,200.8,460.7,215.2,460.7Z" /><g ><path d="M849.25,339.92,811.62,192.6,774.31,339.92H725.74L664.3,125.38h51.14l37.64,155,40.85-155h35.7l40.53,155,37.63-155h51.15L897.82,339.92Z" /></g><g ><path d="M956.68,262.08c0-45,33.46-81.38,80.42-81.38,46.64,0,77.84,34.74,77.84,85.24v9.65H999.46c2.9,19,18.34,34.74,44.71,34.74,13.19,0,31.2-5.47,41.18-15.12l18.33,27c-15.44,14.15-39.89,21.55-64,21.55C992.39,343.78,956.68,311.94,956.68,262.08Zm80.42-47.93c-25.41,0-36.35,17.69-38,33.13h76.56C1074.41,232.49,1064.12,214.15,1037.1,214.15Z" /><path d="M1237.8,339.92v-16.4c-10.61,12.86-28.94,20.26-49.21,20.26-24.77,0-53.71-16.73-53.71-51.47,0-36.66,28.94-50.17,53.71-50.17,20.91,0,38.92,6.75,49.21,19V241.49c0-15.76-13.51-26.05-34.09-26.05-16.41,0-31.84,6.43-44.71,18.33l-16.08-28.62c19-17.05,43.42-24.45,67.87-24.45,35.7,0,68.19,14.15,68.19,58.86V339.92Zm0-37.31v-19.3c-6.75-9-19.62-13.83-32.8-13.83-16.09,0-29.27,8.68-29.27,23.48s13.18,23.16,29.27,23.16C1218.18,316.12,1231.05,311.61,1237.8,302.61Z" /><path d="M1360,320V399.1h-40.85V184.56H1360v19.62A60,60,0,0,1,1408,180.7c39.88,0,68.83,29.59,68.83,81.38s-29,81.7-68.83,81.7C1389.62,343.78,1372.9,336.06,1360,320Zm74.62-57.9c0-26.7-16.08-45-39.56-45-13.19,0-28,7.4-35.06,17.69v54.68c6.75,10,21.87,18,35.06,18C1418.57,307.43,1434.65,289.1,1434.65,262.08Z" /><path d="M1547.55,320V399.1H1506.7V184.56h40.85v19.62a60,60,0,0,1,47.92-23.48c39.89,0,68.84,29.59,68.84,81.38s-29,81.7-68.84,81.7C1577.14,343.78,1560.41,336.06,1547.55,320Zm74.62-57.9c0-26.7-16.08-45-39.56-45-13.19,0-28,7.4-35.06,17.69v54.68c6.75,10,21.87,18,35.06,18C1606.09,307.43,1622.17,289.1,1622.17,262.08Z" /><path d="M1694.22,339.92V125.38h40.85V339.92Z" /><path d="M1771.73,143.39a24.29,24.29,0,0,1,48.57,0,24.29,24.29,0,1,1-48.57,0Zm3.86,196.53V184.56h40.85V339.92Z" /><path d="M1961.83,339.92V246c0-21.55-11.26-28.95-28.63-28.95-16.08,0-28.31,9-35.38,18V339.92H1857V184.56h40.85V204.5c10-11.58,29.27-23.8,54.36-23.8,34.41,0,50.82,19.3,50.82,49.54V339.92Z" /><path d="M2029.69,319.66l17.69-29.6c11.58,10.94,34.42,21.55,53.72,21.55,17.69,0,26.05-6.75,26.05-16.4,0-25.41-92-4.5-92-65.62,0-26.05,22.51-48.89,63.68-48.89,26.06,0,47,9,62.41,21.23l-16.41,28.95c-9.33-9.65-27-18-46-18-14.79,0-24.44,6.43-24.44,15.11,0,22.84,92.31,3.54,92.31,66.27,0,28.62-24.44,49.53-67.54,49.53C2072.15,343.78,2046.09,334.77,2029.69,319.66Z" /><path d="M2186.65,262.08c0-45,33.45-81.38,80.41-81.38,46.64,0,77.85,34.74,77.85,85.24v9.65H2229.43c2.9,19,18.33,34.74,44.71,34.74,13.19,0,31.2-5.47,41.17-15.12l18.34,27c-15.44,14.15-39.89,21.55-64,21.55C2222.35,343.78,2186.65,311.94,2186.65,262.08Zm80.41-47.93c-25.41,0-36.34,17.69-37.95,33.13h76.55C2304.38,232.49,2294.08,214.15,2267.06,214.15Z" /></g><g ><path d="M686.4,458.86V448.05h73v10.81H728.79v86.35h-12V458.86Z" /><path d="M851.05,545.21V448.05h63v10.81H863v31.23h50V500.9H863v33.5h51.06v10.81Z" /><path d="M1008.85,517.11a56,56,0,0,1,0-40.82,47,47,0,0,1,10.46-16A47.66,47.66,0,0,1,1035,450.11a51.17,51.17,0,0,1,19.4-3.7q23.16,0,36.47,19.28l-9.93,5.69a32.13,32.13,0,0,0-26.54-14.16q-15.92,0-26.48,11.06T1017.4,496.7a42.58,42.58,0,0,0,4.85,20.38,35.51,35.51,0,0,0,13.31,14.08,36.26,36.26,0,0,0,18.88,5,31.12,31.12,0,0,0,15.17-3.92A31.57,31.57,0,0,0,1081,522l10.07,5.55Q1077,547,1054.44,547a51,51,0,0,1-19.4-3.7,47.66,47.66,0,0,1-15.73-10.21A47,47,0,0,1,1008.85,517.11Z" /><path d="M1182.26,545.21V448.05h12V489.8h56.19V448.05h12v97.16h-12v-44.6h-56.19v44.6Z" /><path d="M1360.79,545.21V448.05H1373l55.35,75.89V448.05h12v97.16h-11.55l-56-77.53v77.53Z" /><path d="M1540.68,522.38a58.48,58.48,0,0,1,0-51.36,44.62,44.62,0,0,1,16.87-18,50.48,50.48,0,0,1,49.84,0,44.82,44.82,0,0,1,17,18,58,58,0,0,1,0,51.36,44.82,44.82,0,0,1-17,18,50.48,50.48,0,0,1-49.84,0A44.62,44.62,0,0,1,1540.68,522.38Zm6.45-25.68a46.47,46.47,0,0,0,4.26,20.2A33.37,33.37,0,0,0,1563.76,531a34.57,34.57,0,0,0,49.87-14.12,45.79,45.79,0,0,0,4.34-20.2q0-17.22-9.8-28.34t-25.73-11.14q-16,0-25.65,11.1T1547.13,496.7Z" /><path d="M1723.19,545.21V448.05h12V534.4h44.72v10.81Z" /><path d="M1873.72,522.38a58.48,58.48,0,0,1,0-51.36,44.62,44.62,0,0,1,16.87-18,50.48,50.48,0,0,1,49.84,0,44.82,44.82,0,0,1,17,18,58,58,0,0,1,0,51.36,44.82,44.82,0,0,1-17,18,50.48,50.48,0,0,1-49.84,0A44.62,44.62,0,0,1,1873.72,522.38Zm6.45-25.68a46.47,46.47,0,0,0,4.26,20.2A33.37,33.37,0,0,0,1896.8,531a34.57,34.57,0,0,0,49.87-14.12,45.79,45.79,0,0,0,4.34-20.2q0-17.22-9.8-28.34t-25.73-11.14q-16,0-25.65,11.1T1880.17,496.7Z" /><path d="M2057.81,517.3a56.43,56.43,0,0,1,0-41.23,46.74,46.74,0,0,1,10.56-15.95A47.39,47.39,0,0,1,2084.1,450a51.44,51.44,0,0,1,19.28-3.63q23,0,37.56,18.06l-9.68,6.1a33.49,33.49,0,0,0-12-9.73,35.54,35.54,0,0,0-15.85-3.62q-15.93,0-26.5,11t-10.58,28.37a42.81,42.81,0,0,0,4.86,20.48,35.64,35.64,0,0,0,13.33,14.16,37.68,37.68,0,0,0,44.9-5.47V506h-32.95V495.21h44.93v35.11a50.81,50.81,0,0,1-16.76,12.32,50.16,50.16,0,0,1-21.23,4.49,51.07,51.07,0,0,1-19.28-3.66,46.16,46.16,0,0,1-26.29-26.17Z" /><path d="M2226.52,448.05h14l29.86,45.17,29.86-45.17h14l-37.82,56.05v41.11h-12V504.1Z" /></g></svg>