<svg width="384" height="383" viewBox="0 0 384 383" fill="none" xmlns="http://www.w3.org/2000/svg">
<g clip-path="url(#clip0_1173_1419)">
<path d="M210 382.2C197.3 382.2 185 382.1 172.3 382.1C169.3 381.5 166.2 381.5 163.3 381.1C114.7 373.4 74.3 350.9 43.5 312.7C4.90002 265 -7.79999 210.5 4.60001 150.5C22 66.1 98.5 2.50005 184.6 0.100052C222.2 -0.999948 257.4 7.30005 289.5 27.0001C340.7 58.4001 371.3 103.8 381.1 163.2C381.8 167.7 381.6 172.3 383.2 176.6V206.5C382.3 206.9 382.5 207.7 382.5 208.4C379.3 243.3 367.8 275.2 347 303.4C315.2 346.6 272.8 372.6 219.7 381C216.5 381.6 213.2 381.6 210 382.2ZM96.5 192.7C96.5 196.9 96.7 201.2 97.3 205.4C104.4 256.6 153 293.7 205.8 286.2C208.6 285.8 211.1 286 213.7 287.2C234.6 296.8 258.9 292.4 275.6 276.2C292.5 259.7 296.9 237.1 287.5 215.1C286.8 213.4 286.7 211.8 287 210C293.3 172.9 281.5 142.3 252.6 118.7C231.6 101.5 207.1 95.3001 180.1 98.6001C178 98.9001 176 99.1001 174 97.9001C163.4 91.9001 152 89.8001 139.8 91.1001C102.8 95.1001 80.3 134.5 95.9 168.2C97.5 171.7 98.5 174.9 97.6 178.8C96.4 183.4 96.4 188.1 96.5 192.7Z" fill="#03A9F3"/>
<path d="M96.5 192.7C96.4 188.1 96.4 183.4 97.5 178.9C98.4 175 97.5 171.8 95.8 168.3C80.2 134.5 102.7 95.2001 139.7 91.2001C151.9 89.9001 163.3 92.0001 173.9 98.0001C176 99.2001 177.9 99.0001 180 98.7001C206.9 95.4001 231.5 101.6 252.5 118.8C281.4 142.4 293.1 173 286.9 210.1C286.6 211.9 286.7 213.5 287.4 215.2C296.8 237.2 292.4 259.8 275.5 276.3C258.8 292.5 234.5 296.9 213.6 287.3C211 286.1 208.5 285.9 205.7 286.3C152.9 293.8 104.4 256.7 97.2 205.5C96.7 201.2 96.5 197 96.5 192.7ZM194.4 257.6C202.5 257.7 212.8 256.2 222.7 252.3C238.8 246 248.5 232.7 248.5 216.9C248.5 200.7 240.3 190 222.8 183.2C214.1 179.8 204.9 178 195.8 175.8C187.9 173.9 179.8 172.7 172.8 168.3C165.6 163.8 165.5 156.6 172.2 151.6C185.3 142 206.1 146.2 214.3 160.1C215.1 161.5 215.9 162.9 216.8 164.3C221 170.6 228 172.7 234.7 169.8C240.7 167.2 243.7 160.6 241.9 153.5C239.3 143.4 232.3 137.2 223.5 132.6C215.8 128.6 207.3 126.9 198.7 126.2C183.9 125 169.6 126.7 156.3 133.9C145.1 139.9 138.7 149.3 138.5 162.1C138.4 174.9 144.7 184.1 155.5 190.4C164.1 195.4 173.7 197.7 183.3 199.9C192 201.9 200.9 203.2 209.1 207.2C213.9 209.6 217.6 212.9 217.9 218.7C218.2 224.8 215 228.9 210.1 231.8C203.6 235.7 196.3 236.5 188.9 236.3C177.2 235.9 169.3 230.1 164.6 219.5C163.8 217.6 162.7 215.7 161.6 213.9C157.8 207.7 151.7 205.6 144.4 207.9C138.5 209.8 135.7 214.5 136 221.7C136.2 225.4 137.3 228.8 139 232C143.4 240.6 150.2 246.9 158.8 251.1C169.3 256 180.5 257.6 194.4 257.6Z" fill="#FDFEFE"/>
<path d="M194.4 257.6C180.5 257.6 169.3 256 158.9 251C150.3 246.8 143.5 240.5 139.1 231.9C137.4 228.7 136.3 225.3 136.1 221.6C135.8 214.4 138.6 209.7 144.5 207.8C151.7 205.5 157.9 207.6 161.7 213.8C162.8 215.6 163.8 217.5 164.7 219.4C169.3 230 177.2 235.8 189 236.2C196.5 236.5 203.7 235.6 210.2 231.7C215.1 228.8 218.3 224.7 218 218.6C217.7 212.8 214 209.4 209.2 207.1C201 203.1 192.1 201.8 183.4 199.8C173.8 197.6 164.3 195.3 155.6 190.3C144.7 184 138.4 174.8 138.6 162C138.8 149.1 145.2 139.8 156.4 133.8C169.7 126.7 184 125 198.8 126.1C207.4 126.8 215.8 128.5 223.6 132.5C232.4 137 239.5 143.3 242 153.4C243.8 160.5 240.8 167.1 234.8 169.7C228 172.7 221 170.6 216.9 164.2C216 162.9 215.2 161.4 214.4 160C206.2 146.1 185.4 141.8 172.3 151.5C165.5 156.5 165.7 163.8 172.9 168.2C179.9 172.6 188 173.8 195.9 175.7C205 177.8 214.1 179.7 222.9 183.1C240.4 189.9 248.6 200.6 248.6 216.8C248.6 232.6 238.9 245.9 222.8 252.2C212.8 256.1 202.5 257.7 194.4 257.6Z" fill="#05A9F3"/>
</g>
<defs>
<clipPath id="clip0_1173_1419">
<rect width="383.2" height="382.2" fill="white"/>
</clipPath>
</defs>
</svg>
